<svg width="185" height="40" viewBox="0 0 185 40" fill="none" xmlns="http://www.w3.org/2000/svg">
<g clip-path="url(#clip0_31_1338)">
<path d="M16.748 8.33333C16.748 3.73096 13.108 0 8.61788 0C4.12775 0 0.487793 3.73096 0.487793 8.33333V31.6667C0.487793 36.269 4.12775 40 8.61788 40C13.108 40 16.748 36.269 16.748 31.6667V8.33333Z" fill="#1A1A1A"/>
<path d="M39.5122 8.33333C39.5122 3.73096 35.8723 0 31.3822 0C26.892 0 23.2521 3.73096 23.2521 8.33333V31.6667C23.2521 36.269 26.892 40 31.3822 40C35.8723 40 39.5122 36.269 39.5122 31.6667V8.33333Z" fill="#1A1A1A"/>
<path d="M24.8781 13.3334H15.122C11.5299 13.3334 8.61792 16.3181 8.61792 20C8.61792 23.6819 11.5299 26.6667 15.122 26.6667H24.8781C28.4702 26.6667 31.3821 23.6819 31.3821 20C31.3821 16.3181 28.4702 13.3334 24.8781 13.3334Z" fill="#1A1A1A"/>
<path d="M13.4959 24C15.6512 24 17.3984 22.2091 17.3984 20C17.3984 17.7909 15.6512 16 13.4959 16C11.3407 16 9.59351 17.7909 9.59351 20C9.59351 22.2091 11.3407 24 13.4959 24Z" fill="#F8F8F8"/>
<path d="M26.5041 24C28.6594 24 30.4066 22.2091 30.4066 20C30.4066 17.7909 28.6594 16 26.5041 16C24.3489 16 22.6017 17.7909 22.6017 20C22.6017 22.2091 24.3489 24 26.5041 24Z" fill="#F8F8F8"/>
</g>
<path d="M57.364 12.16H60.18V18.078C60.5173 17.7113 60.9353 17.418 61.434 17.198C61.9473 16.9633 62.5193 16.846 63.15 16.846C63.986 16.846 64.712 17.0293 65.328 17.396C65.9587 17.7627 66.4427 18.298 66.78 19.002C67.1173 19.6913 67.286 20.5493 67.286 21.576V28H64.316V21.95C64.316 21.0993 64.1473 20.4613 63.81 20.036C63.4727 19.6107 62.9667 19.398 62.292 19.398C61.6027 19.398 61.0747 19.6327 60.708 20.102C60.356 20.5567 60.18 21.2093 60.18 22.06V28H57.364V12.16ZM76.3144 28L76.0944 26.658C75.7278 27.1127 75.3098 27.472 74.8404 27.736C74.3858 28 73.7698 28.132 72.9924 28.132C72.2591 28.132 71.6138 28.0073 71.0564 27.758C70.5138 27.494 70.0884 27.1347 69.7804 26.68C69.4724 26.2107 69.3184 25.6607 69.3184 25.03C69.3184 24.106 69.6484 23.3433 70.3084 22.742C70.9831 22.126 71.9951 21.7373 73.3444 21.576L76.0944 21.268V20.498C76.0944 20.19 75.9551 19.904 75.6764 19.64C75.3978 19.376 74.9578 19.244 74.3564 19.244C73.8284 19.244 73.3664 19.376 72.9704 19.64C72.5891 19.8893 72.3324 20.2707 72.2004 20.784L69.7804 19.904C70.0738 18.9213 70.6311 18.166 71.4524 17.638C72.2738 17.11 73.2858 16.846 74.4884 16.846C75.9551 16.846 77.0551 17.2127 77.7884 17.946C78.5364 18.6647 78.9104 19.618 78.9104 20.806V28H76.3144ZM76.0944 23.226L73.7184 23.534C73.2344 23.5927 72.8678 23.7393 72.6184 23.974C72.3691 24.194 72.2444 24.4653 72.2444 24.788C72.2444 25.096 72.3691 25.36 72.6184 25.58C72.8678 25.7853 73.2198 25.888 73.6744 25.888C74.1878 25.888 74.6204 25.7927 74.9724 25.602C75.3391 25.4113 75.6178 25.1327 75.8084 24.766C75.9991 24.3993 76.0944 23.9447 76.0944 23.402V23.226ZM81.491 17H84.043L84.241 18.122C84.593 17.726 85.0183 17.418 85.517 17.198C86.0303 16.9633 86.5803 16.846 87.167 16.846C88.0323 16.846 88.7656 17.0293 89.367 17.396C89.983 17.7627 90.4523 18.298 90.775 19.002C91.1123 19.6913 91.281 20.5493 91.281 21.576V28H88.443V21.95C88.443 21.0993 88.2743 20.4613 87.937 20.036C87.5996 19.6107 87.0936 19.398 86.419 19.398C85.7296 19.398 85.2016 19.618 84.835 20.058C84.483 20.4833 84.307 21.1213 84.307 21.972V28H81.491V17ZM94.109 27.164V17H96.925V27.186C96.925 28.286 96.6903 29.2173 96.221 29.98C95.7517 30.7573 95.143 31.344 94.395 31.74C93.647 32.1507 92.855 32.3707 92.019 32.4L91.601 29.958C92.393 29.8847 93.009 29.5913 93.449 29.078C93.889 28.5793 94.109 27.9413 94.109 27.164ZM95.517 15.592C96.0303 15.592 96.4557 15.4307 96.793 15.108C97.1303 14.7707 97.299 14.36 97.299 13.876C97.299 13.392 97.1303 12.9887 96.793 12.666C96.4557 12.3287 96.0303 12.16 95.517 12.16C94.989 12.16 94.5563 12.3287 94.219 12.666C93.8817 12.9887 93.713 13.392 93.713 13.876C93.713 14.36 93.8817 14.7707 94.219 15.108C94.5563 15.4307 94.989 15.592 95.517 15.592ZM106.436 28L106.216 26.658C105.849 27.1127 105.431 27.472 104.962 27.736C104.507 28 103.891 28.132 103.114 28.132C102.38 28.132 101.735 28.0073 101.178 27.758C100.635 27.494 100.21 27.1347 99.9015 26.68C99.5935 26.2107 99.4395 25.6607 99.4395 25.03C99.4395 24.106 99.7695 23.3433 100.43 22.742C101.104 22.126 102.116 21.7373 103.466 21.576L106.216 21.268V20.498C106.216 20.19 106.076 19.904 105.798 19.64C105.519 19.376 105.079 19.244 104.478 19.244C103.95 19.244 103.488 19.376 103.092 19.64C102.71 19.8893 102.454 20.2707 102.322 20.784L99.9015 19.904C100.195 18.9213 100.752 18.166 101.574 17.638C102.395 17.11 103.407 16.846 104.61 16.846C106.076 16.846 107.176 17.2127 107.91 17.946C108.658 18.6647 109.032 19.618 109.032 20.806V28H106.436ZM106.216 23.226L103.84 23.534C103.356 23.5927 102.989 23.7393 102.74 23.974C102.49 24.194 102.366 24.4653 102.366 24.788C102.366 25.096 102.49 25.36 102.74 25.58C102.989 25.7853 103.341 25.888 103.796 25.888C104.309 25.888 104.742 25.7927 105.094 25.602C105.46 25.4113 105.739 25.1327 105.93 24.766C106.12 24.3993 106.216 23.9447 106.216 23.402V23.226ZM119.598 18.65L119.246 18.694V12.16H122.062V28H119.51L119.334 26.636C118.982 27.0467 118.513 27.406 117.926 27.714C117.354 28.0073 116.687 28.154 115.924 28.154C114.971 28.154 114.127 27.9193 113.394 27.45C112.661 26.9807 112.089 26.328 111.678 25.492C111.267 24.6413 111.062 23.644 111.062 22.5C111.062 21.356 111.267 20.3587 111.678 19.508C112.089 18.6573 112.661 18.0047 113.394 17.55C114.127 17.0807 114.971 16.846 115.924 16.846C116.789 16.846 117.53 17.022 118.146 17.374C118.777 17.726 119.261 18.1513 119.598 18.65ZM114.098 22.5C114.098 23.424 114.333 24.172 114.802 24.744C115.271 25.3013 115.887 25.58 116.65 25.58C117.119 25.58 117.545 25.4627 117.926 25.228C118.322 24.9787 118.637 24.6267 118.872 24.172C119.121 23.7173 119.246 23.16 119.246 22.5C119.246 21.84 119.121 21.2827 118.872 20.828C118.637 20.3733 118.322 20.0287 117.926 19.794C117.545 19.5447 117.119 19.42 116.65 19.42C115.887 19.42 115.271 19.706 114.802 20.278C114.333 20.8353 114.098 21.576 114.098 22.5ZM129.754 28.154C128.654 28.154 127.686 27.912 126.85 27.428C126.014 26.944 125.362 26.2693 124.892 25.404C124.438 24.5387 124.21 23.5413 124.21 22.412C124.21 21.3267 124.438 20.366 124.892 19.53C125.347 18.694 125.978 18.0413 126.784 17.572C127.606 17.088 128.537 16.846 129.578 16.846C130.634 16.846 131.566 17.0733 132.372 17.528C133.179 17.9827 133.802 18.6207 134.242 19.442C134.697 20.2487 134.924 21.1947 134.924 22.28C134.924 22.4413 134.91 22.6247 134.88 22.83C134.866 23.0207 134.844 23.226 134.814 23.446H127.246C127.305 23.9153 127.452 24.3187 127.686 24.656C127.936 24.9787 128.236 25.2353 128.588 25.426C128.955 25.602 129.366 25.69 129.82 25.69C130.363 25.69 130.847 25.58 131.272 25.36C131.712 25.1253 132.028 24.8247 132.218 24.458L134.726 25.206C134.286 26.1447 133.626 26.8707 132.746 27.384C131.881 27.8973 130.884 28.154 129.754 28.154ZM131.844 21.4C131.83 20.9893 131.72 20.6227 131.514 20.3C131.309 19.9627 131.038 19.706 130.7 19.53C130.363 19.3393 129.989 19.244 129.578 19.244C129.212 19.244 128.867 19.3393 128.544 19.53C128.222 19.7207 127.943 19.9773 127.708 20.3C127.488 20.608 127.342 20.9747 127.268 21.4H131.844ZM141.911 28.154C140.84 28.154 139.902 27.9193 139.095 27.45C138.288 26.9807 137.658 26.328 137.203 25.492C136.748 24.6413 136.521 23.6587 136.521 22.544C136.521 21.4147 136.748 20.4247 137.203 19.574C137.658 18.7233 138.296 18.056 139.117 17.572C139.938 17.088 140.884 16.846 141.955 16.846C143.114 16.846 144.14 17.132 145.035 17.704C145.944 18.276 146.582 19.046 146.949 20.014L144.331 20.762C144.155 20.3367 143.862 19.9993 143.451 19.75C143.055 19.5007 142.6 19.376 142.087 19.376C141.574 19.376 141.119 19.508 140.723 19.772C140.342 20.036 140.041 20.4027 139.821 20.872C139.616 21.3413 139.513 21.8913 139.513 22.522C139.513 23.4753 139.748 24.2307 140.217 24.788C140.686 25.3453 141.317 25.624 142.109 25.624C142.608 25.624 143.062 25.5067 143.473 25.272C143.884 25.0227 144.192 24.6853 144.397 24.26L146.993 25.008C146.597 25.9613 145.937 26.724 145.013 27.296C144.104 27.868 143.07 28.154 141.911 28.154ZM149.145 12.16H151.983V21.29H152.687L156.317 17H160.013L155.151 22.456L160.035 28H156.339L152.665 23.644H151.983V28H149.145V12.16ZM163.255 28.154C162.712 28.154 162.265 27.9853 161.913 27.648C161.576 27.296 161.407 26.878 161.407 26.394C161.407 25.8953 161.576 25.4773 161.913 25.14C162.265 24.788 162.712 24.612 163.255 24.612C163.783 24.612 164.216 24.788 164.553 25.14C164.905 25.4773 165.081 25.8953 165.081 26.394C165.081 26.878 164.905 27.296 164.553 27.648C164.216 27.9853 163.783 28.154 163.255 28.154ZM174.025 28L173.805 26.658C173.439 27.1127 173.021 27.472 172.551 27.736C172.097 28 171.481 28.132 170.703 28.132C169.97 28.132 169.325 28.0073 168.767 27.758C168.225 27.494 167.799 27.1347 167.491 26.68C167.183 26.2107 167.029 25.6607 167.029 25.03C167.029 24.106 167.359 23.3433 168.019 22.742C168.694 22.126 169.706 21.7373 171.055 21.576L173.805 21.268V20.498C173.805 20.19 173.666 19.904 173.387 19.64C173.109 19.376 172.669 19.244 172.067 19.244C171.539 19.244 171.077 19.376 170.681 19.64C170.3 19.8893 170.043 20.2707 169.911 20.784L167.491 19.904C167.785 18.9213 168.342 18.166 169.163 17.638C169.985 17.11 170.997 16.846 172.199 16.846C173.666 16.846 174.766 17.2127 175.499 17.946C176.247 18.6647 176.621 19.618 176.621 20.806V28H174.025ZM173.805 23.226L171.429 23.534C170.945 23.5927 170.579 23.7393 170.329 23.974C170.08 24.194 169.955 24.4653 169.955 24.788C169.955 25.096 170.08 25.36 170.329 25.58C170.579 25.7853 170.931 25.888 171.385 25.888C171.899 25.888 172.331 25.7927 172.683 25.602C173.05 25.4113 173.329 25.1327 173.519 24.766C173.71 24.3993 173.805 23.9447 173.805 23.402V23.226ZM179.576 17H182.392V28H179.576V17ZM181.006 15.592C180.478 15.592 180.045 15.4307 179.708 15.108C179.371 14.7707 179.202 14.36 179.202 13.876C179.202 13.392 179.371 12.9887 179.708 12.666C180.045 12.3287 180.478 12.16 181.006 12.16C181.505 12.16 181.923 12.3287 182.26 12.666C182.612 12.9887 182.788 13.392 182.788 13.876C182.788 14.36 182.612 14.7707 182.26 15.108C181.923 15.4307 181.505 15.592 181.006 15.592Z" fill="#17151A"/>
<defs>
<clipPath id="clip0_31_1338">
<rect width="40" height="40" fill="white"/>
</clipPath>
</defs>
</svg>
