<svg width="120" height="120" viewBox="0 0 120 120" fill="none" xmlns="http://www.w3.org/2000/svg">
<path d="M30 47C30 45.8954 30.8954 45 32 45H68C69.1046 45 70 45.8954 70 47V53C70 54.1046 69.1046 55 68 55H32C30.8954 55 30 54.1046 30 53V47Z" fill="#17151A"/>
<path d="M50 90C58.2837 89.9983 66.3446 87.4098 73.0666 82.6192C73.8897 82.0327 75.0221 82.0971 75.7368 82.8118L95.0508 102.126C95.8318 102.907 97.0982 102.907 97.8792 102.126L102.121 97.8842C102.902 97.1032 102.902 95.8368 102.121 95.0558L82.807 75.742C82.0923 75.0273 82.0279 73.8946 82.6147 73.0715C87.4079 66.3487 89.998 58.2859 90 50C90 27.945 72.055 10 50 10C27.945 10 10 27.945 10 50C10 72.055 27.945 90 50 90ZM50 20C66.545 20 80 33.455 80 50C80 66.545 66.545 80 50 80C33.455 80 20 66.545 20 50C20 33.455 33.455 20 50 20Z" fill="#17151A"/>
</svg>