<svg width="24" height="24" viewBox="0 0 24 24" fill="none" xmlns="http://www.w3.org/2000/svg">
<path d="M10 18C11.4787 17.9997 12.9219 17.5873 14.1709 16.8174C14.601 16.5523 15.1656 16.5806 15.5229 16.9379L18.586 20.001C18.9765 20.3915 19.6095 20.3915 20 20.001C20.3905 19.6105 20.3905 18.9775 20 18.587L16.937 15.524C16.5796 15.1666 16.5514 14.602 16.8166 14.1718C17.5869 12.9226 17.9996 11.4791 18 10C18 5.589 14.411 2 10 2C5.589 2 2 5.589 2 10C2 14.411 5.589 18 10 18ZM10 4C13.309 4 16 6.691 16 10C16 13.309 13.309 16 10 16C6.691 16 4 13.309 4 10C4 6.691 6.691 4 10 4Z" fill="#474141"/>
</svg>