<svg width="48" height="48" viewBox="0 0 48 48" fill="none" xmlns="http://www.w3.org/2000/svg">
<path d="M13.0321 28.646L10.0521 41.55C9.95977 41.9407 9.98748 42.3502 10.1315 42.725C10.2756 43.0997 10.5293 43.4223 10.8596 43.6506C11.1898 43.8789 11.5813 44.0023 11.9828 44.0047C12.3842 44.0071 12.7771 43.8884 13.1101 43.664L24.0001 36.404L34.8901 43.664C35.2307 43.8902 35.6325 44.0066 36.0413 43.9977C36.4501 43.9887 36.8464 43.8548 37.1768 43.6139C37.5073 43.3729 37.756 43.0366 37.8896 42.6501C38.0232 42.2637 38.0352 41.8455 37.9241 41.452L34.2661 28.652L43.3381 20.488C43.6286 20.2264 43.8361 19.8853 43.9349 19.507C44.0337 19.1287 44.0194 18.7298 43.8938 18.3595C43.7683 17.9892 43.537 17.6639 43.2285 17.4237C42.92 17.1835 42.5478 17.0389 42.1581 17.008L30.7561 16.1L25.8221 5.178C25.6647 4.82632 25.409 4.52768 25.0857 4.31812C24.7624 4.10857 24.3853 3.99707 24.0001 3.99707C23.6148 3.99707 23.2377 4.10857 22.9144 4.31812C22.5911 4.52768 22.3354 4.82632 22.1781 5.178L17.2441 16.1L5.84205 17.006C5.45896 17.0364 5.09273 17.1764 4.78716 17.4095C4.4816 17.6425 4.24964 17.9586 4.11904 18.3201C3.98844 18.6815 3.96473 19.0729 4.05074 19.4474C4.13676 19.822 4.32885 20.1638 4.60405 20.432L13.0321 28.646ZM18.7381 19.994C19.095 19.9659 19.4379 19.8422 19.7307 19.636C20.0234 19.4298 20.2553 19.1487 20.4021 18.822L24.0001 10.86L27.5981 18.822C27.7448 19.1487 27.9767 19.4298 28.2694 19.636C28.5622 19.8422 28.9051 19.9659 29.2621 19.994L37.2061 20.624L30.6641 26.512C30.0961 27.024 29.8701 27.812 30.0781 28.548L32.5841 37.318L25.1121 32.336C24.7841 32.1159 24.398 31.9983 24.0031 31.9983C23.6081 31.9983 23.222 32.1159 22.8941 32.336L15.0861 37.542L17.1861 28.45C17.2631 28.1156 17.2527 27.767 17.156 27.4378C17.0594 27.1085 16.8796 26.8097 16.6341 26.57L10.5581 20.646L18.7381 19.994Z" fill="#7A47D9"/>
</svg>